Coordinates
version=1
nRows=24
nColumns=38
inDegrees=no

Units are S.I. units (second, meters, Newtons, ...)
If the header above contains a line with 'inDegrees', this indicates whether rotational values are in degrees (yes) or radians (no).

endheader
time	pelvis_tilt	pelvis_list	pelvis_rotation	pelvis_tx	pelvis_ty	pelvis_tz	hip_flexion_r	hip_adduction_r	hip_rotation_r	knee_angle_r	ankle_angle_r	subtalar_angle_r	mtp_angle_r	hip_flexion_l	hip_adduction_l	hip_rotation_l	knee_angle_l	ankle_angle_l	subtalar_angle_l	mtp_angle_l	lumbar_extension	lumbar_bending	lumbar_rotation	arm_flex_r	arm_add_r	arm_rot_r	elbow_flex_r	pro_sup_r	wrist_flex_r	wrist_dev_r	arm_flex_l	arm_add_l	arm_rot_l	elbow_flex_l	pro_sup_l	wrist_flex_l	wrist_dev_l
23	1.55525	1.40952	-0.0452176	0.767998	-0.417077	0.978542	0.0346518	0.164674	-0.202825	0.216423	0.0771485	0	0	-0.0721728	-0.159088	-0.225595	0.0113377	0.0457033	0	0	-0.0700662	0.211767	0.0540752	-0.188275	-0.313875	0.19528	0.625475	1.41132	0	0	-0.185233	-0.179261	0.499533	0.548411	0.894829	0	0
23.01	1.55211	1.40874	-0.041401	0.767459	-0.415393	0.978323	0.0333892	0.165082	-0.202671	0.216509	0.0785976	0	0	-0.0775957	-0.158267	-0.222838	0.00308153	0.0438692	0	0	-0.0663853	0.211525	0.0544331	-0.194748	-0.314153	0.201255	0.630913	1.39169	0	0	-0.185626	-0.180698	0.507358	0.544013	0.891563	0	0
23.02	1.54869	1.4079	-0.0372332	0.76691	-0.413839	0.978093	0.0325373	0.16545	-0.203363	0.217003	0.0800995	0	0	-0.0825284	-0.157637	-0.221102	0	0.0424717	0	0	-0.0629667	0.211396	0.0549182	-0.200421	-0.314131	0.205768	0.635736	1.37482	0	0	-0.185017	-0.182129	0.517788	0.538204	0.891178	0	0
23.03	1.53254	1.42336	-0.0166203	0.766373	-0.411476	0.976511	0.0211557	0.155131	-0.166846	0.19248	0.0797095	0	0	-0.0849345	-0.139283	-0.215973	0	0.0419643	0	0	-0.0532556	0.192057	0.0488509	-0.207866	-0.312506	0.224829	0.644717	1.31588	0	0	-0.18942	-0.1916	0.534221	0.54136	0.885468	0	0
23.04	1.47162	1.43552	0.0433675	0.766387	-0.410039	0.974817	0.0273041	0.144547	-0.160168	0.188145	0.0845897	0	0	-0.0799403	-0.124876	-0.214737	0	0.0424151	0	0	-0.040705	0.176059	0.0481648	-0.212504	-0.309103	0.23306	0.650384	1.28989	0	0	-0.192484	-0.197458	0.532284	0.544729	0.876512	0	0
23.05	1.54239	1.42268	-0.0218112	0.765294	-0.408755	0.976237	0.0173354	0.154957	-0.169406	0.193368	0.0828246	0	0	-0.0931346	-0.138342	-0.212944	0	0.0426157	0	0	-0.0516529	0.191895	0.0402098	-0.209274	-0.314637	0.249954	0.657694	1.25264	0	0	-0.176189	-0.151541	0.161558	0.474542	0.323801	0	0
23.06	1.57564	1.40699	-0.0513245	0.764403	-0.408857	0.977573	0.0265756	0.169239	-0.200116	0.222976	0.0813051	0	0	-0.0902484	-0.157188	-0.215473	0	0.0453777	0	0	-0.0575324	0.207632	0.0489933	-0.214264	-0.314516	0.239688	0.659386	1.25167	0	0	-0.174899	-0.191528	0.563708	0.52384	0.84122	0	0
23.07	1.57903	1.40686	-0.051493	0.76378	-0.407879	0.977518	0.0257901	0.168607	-0.200838	0.224762	0.0825548	0	0	-0.091268	-0.156925	-0.213238	0	0.0467028	0	0	-0.0565895	0.206762	0.0459983	-0.214629	-0.31251	0.23969	0.661512	1.25117	0	0	-0.172965	-0.19142	0.559396	0.519101	0.842545	0	0
23.08	1.58406	1.40695	-0.0534203	0.763173	-0.406782	0.977463	0.0248578	0.167498	-0.202534	0.226951	0.0846691	0	0	-0.0923646	-0.156394	-0.210614	0	0.0480386	0	0	-0.0559049	0.205778	0.0428439	-0.213825	-0.31045	0.24003	0.662628	1.24956	0	0	-0.170977	-0.191806	0.557155	0.516789	0.841164	0	0
23.09	1.51998	1.4195	0.00637137	0.763013	-0.405078	0.975809	0.0316271	0.152503	-0.203129	0.219823	0.0940452	0	0	-0.0899064	-0.14064	-0.208156	0	0.0483774	0	0	-0.0423925	0.190634	0.0419461	-0.213033	-0.305552	0.242506	0.661887	1.24637	0	0	-0.174641	-0.196919	0.553476	0.523866	0.838106	0	0
23.1	1.52411	1.42024	0.00537241	0.762342	-0.404089	0.975786	0.0314015	0.151051	-0.204794	0.222351	0.0955563	0	0	-0.0893656	-0.139847	-0.205875	0	0.0500462	0	0	-0.0417617	0.189063	0.0392242	-0.211631	-0.303878	0.245591	0.661447	1.24655	0	0	-0.171617	-0.197975	0.54759	0.526478	0.832296	0	0
23.11	1.50277	1.43748	0.0339638	0.761538	-0.402245	0.974348	0.0210882	0.13887	-0.168506	0.199059	0.0949609	0	0	-0.0860761	-0.120579	-0.197963	0	0.0512483	0	0	-0.0340334	0.168074	0.0294266	-0.212104	-0.299068	0.252628	0.661758	1.24744	0	0	-0.175718	-0.206172	0.544796	0.537603	0.822738	0	0
23.12	1.53827	1.42111	-0.00128071	0.760907	-0.402046	0.975859	0.0273098	0.149457	-0.20631	0.221691	0.0960732	0	0	-0.090012	-0.138633	-0.200711	0	0.05267	0	0	-0.0412018	0.186845	0.0320659	-0.207538	-0.30105	0.253799	0.660724	1.2462	0	0	-0.166755	-0.201761	0.555061	0.528071	0.824346	0	0
23.13	1.54165	1.42124	-0.00208663	0.760253	-0.401216	0.975832	0.0278616	0.148032	-0.212281	0.22577	0.0986839	0	0	-0.090288	-0.13816	-0.1993	0	0.0540269	0	0	-0.0409912	0.186346	0.0307852	-0.205709	-0.299437	0.255333	0.661524	1.24378	0	0	-0.162256	-0.203675	0.562935	0.526626	0.82624	0	0
23.14	1.54164	1.4215	-0.000220749	0.759677	-0.400407	0.97578	0.0277715	0.147055	-0.214446	0.227202	0.0999303	0	0	-0.0906705	-0.137435	-0.198629	0	0.0548235	0	0	-0.0403812	0.185791	0.0304347	-0.204005	-0.298009	0.257512	0.662344	1.24032	0	0	-0.1576	-0.205596	0.568275	0.527422	0.82725	0	0
23.15	1.54005	1.42153	0.00312913	0.759118	-0.399615	0.975731	0.0274883	0.146422	-0.216139	0.227696	0.10063	0	0	-0.0912195	-0.136884	-0.197809	0	0.0552336	0	0	-0.0395064	0.185536	0.0306024	-0.202922	-0.297749	0.263295	0.664697	1.23579	0	0	-0.152756	-0.20793	0.574321	0.529854	0.829039	0	0
23.16	1.53871	1.42129	0.00598941	0.758592	-0.398836	0.975694	0.0267316	0.146177	-0.21734	0.22734	0.101132	0	0	-0.0921682	-0.136583	-0.197084	0	0.055393	0	0	-0.0387163	0.185607	0.0312643	-0.20206	-0.297843	0.269307	0.666738	1.23007	0	0	-0.147959	-0.209745	0.5775	0.53095	0.829814	0	0
23.17	1.53714	1.42096	0.00880606	0.758098	-0.398087	0.975644	0.0257123	0.146097	-0.218399	0.226368	0.101573	0	0	-0.0933608	-0.136379	-0.196315	0	0.0553751	0	0	-0.0378421	0.185785	0.0324816	-0.201174	-0.298013	0.27543	0.668112	1.22279	0	0	-0.142916	-0.210725	0.577713	0.530494	0.828961	0	0
23.18	1.53352	1.42051	0.0134878	0.757618	-0.397393	0.975549	0.0249645	0.14613	-0.219651	0.225161	0.101837	0	0	-0.0943292	-0.136274	-0.195619	0	0.0553456	0	0	-0.0366075	0.186193	0.0338111	-0.200165	-0.29841	0.28194	0.669934	1.21633	0	0	-0.13787	-0.211446	0.578117	0.53049	0.828675	0	0
23.19	1.53075	1.4201	0.0172015	0.757152	-0.396696	0.975452	0.023929	0.146194	-0.220645	0.22371	0.102034	0	0	-0.0956017	-0.136112	-0.194667	0	0.0552132	0	0	-0.0354097	0.186655	0.0351839	-0.198973	-0.298813	0.288041	0.67139	1.21188	0	0	-0.133246	-0.212364	0.578596	0.531592	0.828872	0	0
23.2	1.49606	1.43678	0.0555209	0.756669	-0.395216	0.973876	0.0140587	0.135194	-0.180293	0.197413	0.100213	0	0	-0.0935051	-0.116824	-0.18919	0	0.0547054	0	0	-0.0266735	0.166836	0.031491	-0.200475	-0.295826	0.295814	0.67525	1.20217	0	0	-0.135161	-0.220089	0.575748	0.542224	0.830237	0	0
23.21	1.49449	1.43615	0.0578156	0.75611	-0.394537	0.973754	0.0130195	0.135297	-0.18085	0.196424	0.100715	0	0	-0.0952342	-0.116675	-0.188696	0	0.0546806	0	0	-0.0275494	0.167248	0.0399432	-0.198306	-0.26699	0.0523451	0.68924	0.15243	0	0	-0.12582	-0.221302	0.584494	0.542496	0.828336	0	0
23.22	1.49748	1.43777	0.0587576	0.755793	-0.394451	0.973755	0.0133242	0.136347	-0.178118	0.197753	0.0986439	0	0	-0.0864421	-0.116828	-0.186844	0	0.0557947	0	0	-0.025497	0.165373	0.0321104	-0.196614	-0.298198	0.317141	0.680145	1.15969	0	0	-0.126534	-0.220898	0.568622	0.545092	0.834783	0	0
23.23	1.52724	1.42134	0.0281618	0.755393	-0.394624	0.975113	0.0210931	0.148676	-0.213418	0.219911	0.0980493	0	0	-0.090524	-0.134832	-0.190094	0	0.0556652	0	0	-0.0312091	0.184753	0.0371058	-0.192003	-0.3012	0.317772	0.677981	1.16569	0	0	-0.117262	-0.215007	0.568767	0.538957	0.833415	0	0
